HIERARCHY
ROOT hip
{
	OFFSET 0.000000 0.000000 0.000000 
	CHANNELS 6 Xposition Yposition Zposition Xrotation Zrotation Yrotation
	JOINT abdomen
	{
		OFFSET 0.000000 3.402643 0.000000 
		CHANNELS 3 Xrotation Zrotation Yrotation
		JOINT chest
		{
			OFFSET 0.000000 8.438565 -0.680529 
			CHANNELS 3 Xrotation Zrotation Yrotation
			JOINT neck
			{
				OFFSET 0.000000 10.207942 -0.272212 
				CHANNELS 3 Xrotation Zrotation Yrotation
				JOINT head
				{
					OFFSET 0.000000 3.130431 0.000000 
					CHANNELS 3 Xrotation Zrotation Yrotation
					End Site
					{
						OFFSET 0.000000 3.130435 0.000000 
					}
				}
			}
			JOINT lCollar
			{
				OFFSET 3.470700 6.669187 -0.816635 
				CHANNELS 3 Yrotation Zrotation Xrotation
				JOINT lShldr
				{
					OFFSET 3.198488 0.000000 0.000000 
					CHANNELS 3 Zrotation Yrotation Xrotation
					JOINT lForeArm
					{
						OFFSET 10.139888 0.000000 0.000000 
						CHANNELS 3 Yrotation Zrotation Xrotation
						JOINT lHand
						{
							OFFSET 8.370511 0.000000 0.000000 
							CHANNELS 3 Zrotation Yrotation Xrotation
							End Site
							{
								OFFSET 4.083176 0.000000 0.000000 
							}
						}
					}
				}
			}
			JOINT rCollar
			{
				OFFSET -3.470700 6.669187 -0.816635 
				CHANNELS 3 Yrotation Zrotation Xrotation
				JOINT rShldr
				{
					OFFSET -3.198488 0.000000 0.000000 
					CHANNELS 3 Zrotation Yrotation Xrotation
					JOINT rForeArm
					{
						OFFSET -10.139888 0.000000 0.000000 
						CHANNELS 3 Yrotation Zrotation Xrotation
						JOINT rHand
						{
							OFFSET -8.370511 0.000000 0.000000 
							CHANNELS 3 Zrotation Yrotation Xrotation
							End Site
							{
								OFFSET -4.083176 0.000000 0.000000 
							}
						}
					}
				}
			}
		}
	}
	JOINT lThigh
	{
		OFFSET 5.308129 -1.633274 1.361059 
		CHANNELS 3 Xrotation Zrotation Yrotation
		JOINT lShin
		{
			OFFSET -2.041588 -20.007561 0.000000 
			CHANNELS 3 Xrotation Zrotation Yrotation
			JOINT lFoot
			{
				OFFSET 0.000000 -19.190928 -1.224953 
				CHANNELS 3 Xrotation Yrotation Zrotation
				End Site
				{
					OFFSET 0.000000 -2.449906 4.627600 
				}
			}
		}
	}
	JOINT rThigh
	{
		OFFSET -5.308129 -1.633274 1.361059 
		CHANNELS 3 Xrotation Zrotation Yrotation
		JOINT rShin
		{
			OFFSET 2.041588 -20.007561 0.000000 
			CHANNELS 3 Xrotation Zrotation Yrotation
			JOINT rFoot
			{
				OFFSET 0.000000 -19.190928 -1.224953 
				CHANNELS 3 Xrotation Yrotation Zrotation
				End Site
				{
					OFFSET 0.000000 -2.449906 4.627600 
				}
			}
		}
	}
}
MOTION
Frames: 10
Frame Time: 0.033333
-1.177216 48.984364 1.940353 1.998369 -3.784071 -9.621019 0.000000 0.000000 0.000000 -1.348410 5.541905 -2.433182 5.029875 3.162539 1.780563 14.805579 0.019511 2.617191 -4.915823 -2.018189 -0.379571 -72.977760 16.792608 3.816150 -51.738766 -4.230515 26.956390 -13.630830 5.044847 -3.759737 -0.089491 9.874754 -0.674319 60.648884 -22.336397 12.806566 46.220295 0.751548 3.136440 -13.099321 -3.045738 -3.539936 11.765789 17.069315 16.616131 2.172436 -0.251012 15.570150 -5.851779 0.928254 -18.130075 -2.720192 -0.516648 -3.262322 15.843305 2.760767 -13.447179 -13.395288 -0.603048 4.987997 
-1.810166 48.958950 2.082399 1.584623 -3.304555 -11.249831 0.000000 0.000000 0.000000 -1.035616 5.358109 -1.991083 5.036168 2.839090 2.503217 15.516932 -0.204814 2.910173 -5.052999 -1.883354 -0.126392 -71.876755 14.833261 12.430863 -55.294659 -5.440764 39.970478 -7.519486 8.261233 -3.782028 0.223262 9.500627 -0.406180 62.991112 -22.494318 15.454870 45.817299 1.634023 3.675144 -12.961747 -4.068691 -3.446619 11.659812 16.894737 16.255714 4.316858 0.803725 15.565159 -3.789925 0.711366 -19.914665 -2.622412 -0.351094 -3.062907 16.706892 2.677993 -12.027573 -14.237167 -0.510226 4.181145 
-2.390929 48.952435 2.187347 1.558194 -2.327987 -13.351241 0.000000 0.000000 0.000000 -1.039066 4.862010 -1.312989 5.052911 2.290601 3.518667 15.704533 -0.146246 3.271474 -4.479599 -1.937120 -0.204336 -69.954323 12.687827 16.768581 -57.536251 -5.779150 51.408745 -2.943012 9.044275 -3.782776 0.825622 8.929094 -0.475151 64.626556 -23.209198 16.132938 45.303299 1.394358 12.263518 -10.015507 -4.118494 -3.450784 6.333685 17.152042 13.832987 15.204933 2.090673 16.767876 -3.416902 0.676754 -21.274559 -3.139676 -0.575327 -2.772791 17.694157 2.356431 -10.196183 -15.031282 -0.481197 3.446192 
-2.812186 48.971676 2.269434 1.281918 -1.925588 -13.758162 0.000000 0.000000 0.000000 -0.763281 4.851819 -1.518984 5.228168 2.368301 3.626405 15.710048 -0.652954 3.672082 -4.451607 -1.119346 0.078065 -67.948235 9.830914 20.144125 -58.510113 -6.090982 53.653721 0.821598 1.762457 -3.488889 0.636480 9.021321 -0.199010 65.199165 -23.383247 17.058199 45.378071 1.606862 13.122009 -7.844670 -3.682112 -3.489327 -2.109835 17.234335 10.354650 29.920425 3.992890 20.528290 -3.564761 0.607386 -19.922354 -2.660894 -0.720949 -3.051270 17.635496 2.529103 -9.317660 -15.392981 -0.394335 2.791558 
-3.153945 48.975574 2.452358 1.008622 -1.895377 -13.972876 0.000000 0.000000 0.000000 -0.455768 5.231850 -1.784185 5.417352 2.640814 3.754111 15.100365 -1.207938 4.033952 -4.536788 -0.608630 0.408951 -66.502502 7.479270 21.223337 -59.362751 -6.138816 47.392212 0.022856 -0.879097 -3.398487 0.483721 9.258566 0.088314 64.846443 -22.915047 18.385853 45.137115 1.975068 11.764528 -4.644900 -5.212003 -3.482373 -7.908715 16.548071 8.172071 38.353867 5.061695 24.461430 -2.513723 0.389694 -16.564428 -1.841984 -0.633418 -3.249679 17.277184 2.842049 -8.750945 -15.679247 -0.313911 2.253133 
-3.457964 48.972202 2.603798 1.393118 -1.786087 -14.606967 0.000000 0.000000 0.000000 -0.529623 5.622490 -1.717025 5.369964 2.921889 4.185196 14.142832 -1.509300 4.356784 -4.412440 -0.271945 0.360299 -65.841751 5.774786 19.800091 -59.903034 -5.765651 34.474243 -5.151266 -1.597586 -3.228266 0.673828 9.306641 0.000000 63.797169 -22.149118 19.806221 44.550087 2.306365 11.464948 -1.094174 -5.684211 -3.498007 -12.650931 15.704919 6.605825 43.464966 5.231967 24.071962 -3.365061 0.395158 -12.305322 -1.840295 -0.388951 -3.169123 17.002584 2.916781 -8.144708 -15.873718 -0.253412 1.791049 
-3.739572 49.006664 2.811758 1.301187 -1.214582 -15.394326 0.000000 0.000000 0.000000 -0.347807 5.437833 -1.402229 5.579514 2.890641 4.703588 12.864984 -1.615625 4.708735 -4.110496 -0.113829 0.496784 -66.274796 4.903148 17.381859 -59.969032 -5.308868 28.102230 -6.119845 0.628679 -3.308006 0.914314 8.996508 0.147718 62.265438 -21.384235 21.287523 44.521889 2.563123 12.475286 -0.176941 -4.726958 -3.528215 -15.697742 14.154408 5.640482 45.819473 4.589863 22.227463 -4.014372 0.347409 -9.695727 -1.468083 -0.602211 -3.057247 16.712511 2.673949 -7.552612 -16.053682 -0.231195 1.539179 
-3.980921 49.024006 3.105190 1.067244 -0.798325 -15.900121 0.000000 0.000000 0.000000 -0.051479 5.321131 -1.186510 5.712125 2.927682 5.133711 11.963395 -1.556553 5.001598 -3.976569 0.123646 0.750142 -67.324707 4.585396 14.356662 -59.718578 -4.717559 27.774611 -4.407885 1.777120 -3.415981 1.042083 8.728200 0.404576 60.471512 -20.464060 22.809462 44.565857 2.825004 13.983680 -2.020377 -5.352409 -3.510104 -17.385555 12.425691 5.276429 45.508663 3.593290 21.702414 -4.104986 0.377727 -9.579910 -0.796712 -0.689429 -2.842158 16.392200 2.332716 -7.402405 -16.317438 -0.225731 1.532008 
-4.202743 49.016933 3.592315 -0.026089 -0.112589 -16.103559 0.000000 0.000000 0.000000 0.618173 4.735568 -1.028340 6.086222 2.995164 5.261507 11.313468 -2.032115 5.354766 -3.979470 0.160433 1.344406 -68.507706 4.502753 11.543678 -59.167095 -4.141597 28.896441 -2.093946 2.790304 -3.468817 1.140922 8.390470 1.016244 58.637802 -19.563465 24.164757 44.316113 3.175145 14.741741 -5.069602 -5.767208 -3.432251 -17.593451 10.075251 5.010653 44.028233 2.322685 19.929028 -5.304604 0.411062 -8.166029 0.710222 -1.478910 -3.341046 16.569750 2.069141 -6.724070 -17.108229 -0.233765 1.563389 
-4.378032 48.969589 3.966036 -0.006193 0.525131 -16.211580 0.000000 0.000000 0.000000 0.645081 4.413681 -0.753481 6.122795 3.032795 5.515575 10.602203 -2.148128 5.540892 -3.914915 0.329340 1.325011 -69.401382 4.621521 9.726045 -58.636089 -3.842776 28.635735 -0.164489 4.118752 -3.508020 1.332049 8.081275 1.014791 57.099579 -18.800478 24.752855 44.361526 3.348125 14.469156 -6.282885 -7.026839 -3.366422 -18.589622 7.957012 4.770425 40.649815 0.568543 19.123430 -6.516759 0.343818 -6.155014 0.820123 -2.041000 -3.669798 17.110865 2.028516 -6.298100 -17.949081 -0.280811 1.550510 
